<svg xmlns="http://www.w3.org/2000/svg" width="512" height="512" viewBox="0 0 512 512" role="img" aria-label="GamepadCommander icon">

  <!-- Background -->
  <rect x="24" y="24" width="464" height="464" rx="96" fill="#0B1B3A"/>

  <!-- Two-pane file manager -->
  <g opacity="0.95">
    <!-- Left pane -->
    <rect x="96" y="132" width="152" height="248" rx="18" fill="#0A0A0A"/>
    <rect x="112" y="154" width="120" height="16" rx="8" fill="#1C1C1C"/>
    <rect x="112" y="186" width="104" height="12" rx="6" fill="#1C1C1C"/>
    <rect x="112" y="210" width="112" height="12" rx="6" fill="#1C1C1C"/>
    <rect x="112" y="234" width="88" height="12" rx="6" fill="#1C1C1C"/>
    <rect x="112" y="258" width="104" height="12" rx="6" fill="#1C1C1C"/>

    <!-- Right pane -->
    <rect x="264" y="132" width="152" height="248" rx="18" fill="#0A0A0A"/>
    <rect x="280" y="154" width="120" height="16" rx="8" fill="#1C1C1C"/>
    <rect x="280" y="186" width="104" height="12" rx="6" fill="#1C1C1C"/>
    <rect x="280" y="210" width="92" height="12" rx="6" fill="#1C1C1C"/>
    <rect x="280" y="234" width="120" height="12" rx="6" fill="#1C1C1C"/>
    <rect x="280" y="258" width="88" height="12" rx="6" fill="#1C1C1C"/>

  </g>

  <!-- Centered Lucide gamepad -->
  <!-- 24x24 icon scaled and perfectly centered -->
  <g
    transform="
      translate(256 256)
      translate(-120 -120)
      scale(10)
    "
    fill="none"
    stroke="#FF8A00"
    stroke-width="2"
    stroke-linecap="round"
    stroke-linejoin="round"
  >
    <line x1="6" x2="10" y1="11" y2="11"/>
    <line x1="8" x2="8" y1="9" y2="13"/>

    <line x1="15" x2="15.01" y1="12" y2="12"/>
    <line x1="18" x2="18.01" y1="10" y2="10"/>

    <path d="M17.32 5H6.68a4 4 0 0 0-3.978 3.59c-.006.052-.01.101-.017.152C2.604 9.416 2 14.456 2 16a3 3 0 0 0 3 3c1 0 1.5-.5 2-1l1.414-1.414A2 2 0 0 1 9.828 16h4.344a2 2 0 0 1 1.414.586L17 18c.5.5 1 1 2 1a3 3 0 0 0 3-3c0-1.545-.604-6.584-.685-7.258-.007-.05-.011-.1-.017-.151A4 4 0 0 0 17.32 5z"/>
  </g>

</svg>
